<?xml version="1.0"?>
<svg xmlns="http://www.w3.org/2000/svg" version="1.1" width="512" height="512" x="0" y="0" viewBox="0 0 512 512"
     style="enable-background:new 0 0 512 512" xml:space="preserve" class=""><g><g xmlns="http://www.w3.org/2000/svg"><path d="m292.988 0h-246.543c-21.331 0-38.623 17.292-38.623 38.623s17.292 38.623 38.623 38.623h246.543c73.857 0 133.944 60.087 133.944 133.944s-60.087 133.944-133.944 133.944h-18.93v-54.213c0-27.207-29.453-44.211-53.015-30.606l-160.781 92.837c-23.559 13.603-23.56 47.608-.001 61.212l160.781 92.847c23.561 13.606 53.016-3.398 53.016-30.606v-54.225h18.93c116.451 0 211.19-94.739 211.19-211.19s-94.739-211.19-211.19-211.19z" fill="#a05d63" data-original="#dd5790" style="" class=""/><g fill="#da387d"><path d="m292.988 77.246c67.743 0 123.893 50.553 132.727 115.914.797-5.899 1.218-11.916 1.218-18.03 0-73.857-60.087-133.944-133.944-133.944h-246.544c-14.817 0-27.678-8.347-34.156-20.592-2.848 5.383-4.467 11.516-4.467 18.03 0 21.331 17.292 38.623 38.623 38.623h246.543z" fill="#b3686f" data-original="#da387d" style="" class=""/><path d="m292.988 386.319h-18.93v36.061h18.93c116.451 0 211.19-94.739 211.19-211.19 0-6.074-.273-12.085-.778-18.03-9.179 108.041-100.036 193.159-210.412 193.159z" fill="#b3686f" data-original="#da387d" style="" class=""/><path d="m221.042 471.15-160.781-92.847c-5.584-3.224-9.827-7.602-12.764-12.575-9.454 16.009-5.211 38.256 12.764 48.636l160.781 92.847c23.561 13.606 53.016-3.398 53.016-30.606v-36.061c0 27.208-29.455 44.212-53.016 30.606z" fill="#b3686f" data-original="#da387d" style="" class=""/></g></g></g></svg>
