<?xml version="1.0"?>
<svg xmlns="http://www.w3.org/2000/svg" xmlns:xlink="http://www.w3.org/1999/xlink" xmlns:svgjs="http://svgjs.com/svgjs" version="1.1" width="512" height="512" x="0" y="0" viewBox="0 0 280.028 280.028" style="enable-background:new 0 0 512 512" xml:space="preserve" class=""><g transform="matrix(-1,0,0,1,280.02801513671875,0)">
<g xmlns="http://www.w3.org/2000/svg">
	<path style="" d="M87.509,52.505h105.01c48.331,0,87.509,39.178,87.509,87.509c0,48.313-39.178,87.509-87.509,87.509   H87.509C39.186,227.522,0,188.327,0,140.014C0,91.691,39.186,52.505,87.509,52.505z" fill="#b1b3b3" data-original="#3db39e" class=""/>
	<path style="" d="M192.519,78.758c33.831,0,61.256,27.425,61.256,61.256c0,33.84-27.425,61.256-61.256,61.256   c-33.822,0-61.256-27.416-61.256-61.256C131.263,106.183,158.697,78.758,192.519,78.758z" fill="#ebebeb" data-original="#ebebeb" class=""/>
</g>
<g xmlns="http://www.w3.org/2000/svg">
</g>
<g xmlns="http://www.w3.org/2000/svg">
</g>
<g xmlns="http://www.w3.org/2000/svg">
</g>
<g xmlns="http://www.w3.org/2000/svg">
</g>
<g xmlns="http://www.w3.org/2000/svg">
</g>
<g xmlns="http://www.w3.org/2000/svg">
</g>
<g xmlns="http://www.w3.org/2000/svg">
</g>
<g xmlns="http://www.w3.org/2000/svg">
</g>
<g xmlns="http://www.w3.org/2000/svg">
</g>
<g xmlns="http://www.w3.org/2000/svg">
</g>
<g xmlns="http://www.w3.org/2000/svg">
</g>
<g xmlns="http://www.w3.org/2000/svg">
</g>
<g xmlns="http://www.w3.org/2000/svg">
</g>
<g xmlns="http://www.w3.org/2000/svg">
</g>
<g xmlns="http://www.w3.org/2000/svg">
</g>
</g></svg>
