<?xml version="1.0"?>
<svg xmlns="http://www.w3.org/2000/svg" version="1.1" width="512" height="512" x="0" y="0" viewBox="0 0 36 36"
     style="enable-background:new 0 0 512 512" xml:space="preserve" class=""><g><g xmlns="http://www.w3.org/2000/svg" id="bg"><g><path d="m4.167 27.707c0-6.917-3.583-11.667-3.583-15s1.916-10.334 17.249-10.334 17.583 9.417 17.583 13.083c.001 17.167-31.249 24.501-31.249 12.251z" fill="#efefef" data-original="#efefef" style="" class=""/></g></g><g xmlns="http://www.w3.org/2000/svg" id="color"><g><g><path d="m15.707 25.121c-.188.188-.442.293-.707.293s-.52-.105-.707-.293l-6-6c-.391-.391-.39-1.024 0-1.414l1.414-1.414c.391-.391 1.024-.391 1.414 0l3.879 3.878 9.879-9.878c.391-.391 1.024-.391 1.414 0l1.414 1.414c.391.391.391 1.024 0 1.414z" fill="#748581" data-original="#2fdf84" style="" class=""/></g></g><g><g><path d="m10.543 19.121c-.391-.391-.39-1.024 0-1.414l.996-.996-.418-.418c-.391-.391-1.024-.391-1.414 0l-1.414 1.414c-.391.391-.391 1.024 0 1.414l6 6c.188.188.442.293.707.293s.52-.105.707-.293l.418-.418z" fill="#748581" data-original="#00b871" style="" class=""/></g></g><g><path d="m18 32.5c-.827 0-1.5-.673-1.5-1.5s.673-1.5 1.5-1.5 1.5.673 1.5 1.5-.673 1.5-1.5 1.5zm0-2c-.275 0-.5.225-.5.5s.225.5.5.5.5-.225.5-.5-.225-.5-.5-.5z" fill="#748581" data-original="#a4afc1" style="" class=""/></g></g><g xmlns="http://www.w3.org/2000/svg" id="regular"><g><g><path d="m15 26.164c-.468 0-.907-.182-1.237-.513l-6-6c-.683-.683-.683-1.792 0-2.475l1.414-1.414c.682-.682 1.793-.682 2.475 0l3.348 3.349 9.349-9.349c.682-.682 1.793-.682 2.475 0l1.414 1.414c.331.33.513.77.513 1.237s-.182.907-.513 1.237l-12 12c-.331.332-.77.514-1.238.514zm-4.586-9.414c-.064 0-.128.024-.177.073l-1.414 1.414c-.098.098-.098.256 0 .354l6 6c.094.094.26.094.354 0l12-12c.098-.098.098-.256 0-.354l-1.414-1.414c-.098-.098-.256-.098-.354 0l-9.879 9.879c-.293.293-.768.293-1.061 0l-3.879-3.879c-.048-.049-.111-.073-.176-.073z" fill="#748581" data-original="#000000" style="" class=""/></g></g></g></g></svg>
